<svg width="550" height="550" viewBox="0 0 550 550" fill="none" xmlns="http://www.w3.org/2000/svg">
<path fill-rule="evenodd" clip-rule="evenodd" d="M250.859 458.144C276.693 461.019 299.999 459.01 313.308 456.354C317.176 455.582 320.938 458.092 321.71 461.961C322.482 465.829 319.972 469.591 316.104 470.363C301.377 473.302 276.595 475.382 249.279 472.341C221.974 469.302 191.562 461.081 166.099 442.925C135.212 420.902 115.669 398.82 102.704 377.343C89.7525 355.889 83.5613 335.357 79.0248 316.849C78.0858 313.017 80.4305 309.15 84.2618 308.211C88.0932 307.272 91.9604 309.617 92.8995 313.448C97.2914 331.367 103.064 350.299 114.933 369.96C126.789 389.598 144.924 410.282 174.392 431.294C197.213 447.565 225.014 455.267 250.859 458.144Z" fill="white"/>
<path fill-rule="evenodd" clip-rule="evenodd" d="M299.447 92.6914C273.613 89.8157 250.307 91.8249 236.998 94.481C233.13 95.253 229.368 92.7429 228.596 88.8744C227.824 85.0059 230.334 81.244 234.203 80.4719C248.929 77.5329 273.711 75.453 301.027 78.4938C328.332 81.5333 358.744 89.7539 384.207 107.91C415.095 129.933 434.637 152.015 447.602 173.492C460.554 194.946 466.745 215.477 471.281 233.986C472.22 237.818 469.876 241.685 466.044 242.624C462.213 243.563 458.346 241.218 457.407 237.387C453.015 219.468 447.242 200.536 435.373 180.875C423.518 161.237 405.382 140.553 375.914 119.541C353.093 103.27 325.292 95.5684 299.447 92.6914Z" fill="white"/>
</svg>
