<svg width="550" height="550" viewBox="0 0 550 550" fill="none" xmlns="http://www.w3.org/2000/svg">
<path fill-rule="evenodd" clip-rule="evenodd" d="M290.718 216.044C290.718 241.103 270.412 261.418 245.363 261.418C223.394 261.418 205.073 245.792 200.899 225.045C190.802 239.676 184.888 257.418 184.888 276.542C184.888 326.661 225.501 367.29 275.6 367.29C325.699 367.29 366.312 326.661 366.312 276.542C366.312 227.641 327.648 187.774 279.233 185.866C286.377 193.885 290.718 204.458 290.718 216.044ZM275.6 299.3C283.95 299.3 290.718 292.529 290.718 284.176C290.718 275.823 283.95 269.051 275.6 269.051C267.25 269.051 260.481 275.823 260.481 284.176C260.481 292.529 267.25 299.3 275.6 299.3Z" fill="white"/>
</svg>
