<svg width="550" height="550" viewBox="0 0 550 550" fill="none" xmlns="http://www.w3.org/2000/svg">
<path fill-rule="evenodd" clip-rule="evenodd" d="M447.665 96.7406C450.34 93.8408 454.859 93.6582 457.758 96.3327C482.652 119.292 531.306 187.294 531.306 279.257C531.306 371.287 482.583 434.53 457.443 455.133C454.392 457.634 449.892 457.187 447.391 454.136C444.891 451.085 445.337 446.585 448.388 444.084C470.748 425.76 517.021 366.364 517.021 279.257C517.021 192.081 470.678 127.682 448.073 106.834C445.174 104.159 444.991 99.6403 447.665 96.7406Z" fill="white"/>
<path fill-rule="evenodd" clip-rule="evenodd" d="M102.641 456.594C99.9668 459.494 95.448 459.677 92.5483 457.002C67.6543 434.042 19.0002 366.041 19.0002 274.078C19.0002 182.048 67.7241 118.805 92.8633 98.2017C95.9144 95.7012 100.415 96.1476 102.915 99.1986C105.416 102.25 104.969 106.75 101.918 109.251C79.559 127.575 33.2855 186.971 33.2855 274.078C33.2855 361.254 79.6287 425.653 102.233 446.501C105.133 449.176 105.316 453.695 102.641 456.594Z" fill="white"/>
</svg>
