<svg width="170" height="25" viewBox="0 0 170 25" fill="none" xmlns="http://www.w3.org/2000/svg">
<path d="M39.84 17.224C37.2693 17.224 35.984 16.2907 35.984 14.424C35.984 14.136 36.016 13.8267 36.08 13.496L36.288 12.312H39.168L39.072 12.84C39.0293 13.1067 39.008 13.3787 39.008 13.656C39.008 13.9333 39.0773 14.1627 39.216 14.344C39.4293 14.6107 39.7813 14.744 40.272 14.744C40.7627 14.744 41.1573 14.6107 41.456 14.344C41.7653 14.0773 41.984 13.5867 42.112 12.872L43.424 5.464H46.288L44.944 13.096C44.6987 14.5147 44.1653 15.56 43.344 16.232C42.5227 16.8933 41.3547 17.224 39.84 17.224ZM54.3494 16.168C53.5067 16.872 52.312 17.224 50.7654 17.224C49.2187 17.224 48.1467 16.8667 47.5494 16.152C47.1227 15.6613 46.9094 14.984 46.9094 14.12C46.9094 13.736 46.952 13.3147 47.0374 12.856L48.3334 5.48H51.2134L49.9174 12.792C49.8747 13.0587 49.8534 13.336 49.8534 13.624C49.8534 14.3707 50.3014 14.744 51.1974 14.744C51.7307 14.744 52.1574 14.6053 52.4774 14.328C52.7974 14.0507 53.0214 13.5387 53.1494 12.792L54.4454 5.48H57.3254L56.0294 12.856C55.7627 14.3493 55.2027 15.4533 54.3494 16.168ZM60.5319 13.72C60.5319 14.456 61.0599 14.824 62.1159 14.824C63.1825 14.824 63.7159 14.4933 63.7159 13.832C63.7159 13.48 63.5345 13.192 63.1719 12.968C62.8092 12.744 62.3665 12.5573 61.8439 12.408C61.3319 12.2587 60.8145 12.088 60.2919 11.896C59.7799 11.6933 59.3425 11.384 58.9799 10.968C58.6172 10.5413 58.4359 10.0133 58.4359 9.384C58.4359 6.70667 60.1585 5.368 63.6039 5.368C64.8625 5.368 65.8119 5.608 66.4519 6.088C67.1025 6.55733 67.4279 7.21333 67.4279 8.056C67.4279 8.36533 67.3852 8.664 67.2999 8.952C67.2252 9.22933 67.1452 9.42667 67.0599 9.544L66.9319 9.736H64.0999C64.3345 9.49067 64.4519 9.18133 64.4519 8.808C64.4519 8.11467 63.9985 7.768 63.0919 7.768C61.9505 7.768 61.3799 8.13067 61.3799 8.856C61.3799 9.21867 61.5612 9.50667 61.9239 9.72C62.2865 9.93333 62.7239 10.104 63.2359 10.232C63.7585 10.3493 64.2812 10.4987 64.8039 10.68C65.3265 10.8613 65.7692 11.1653 66.1319 11.592C66.4945 12.008 66.6759 12.552 66.6759 13.224C66.6759 14.5787 66.2705 15.5867 65.4599 16.248C64.6492 16.8987 63.4012 17.224 61.7159 17.224C60.0305 17.224 58.8785 16.9253 58.2599 16.328C57.8012 15.88 57.5719 15.2613 57.5719 14.472C57.5719 14.1733 57.6039 13.848 57.6679 13.496L57.7159 13.24H60.5959L60.5639 13.432C60.5425 13.5387 60.5319 13.6347 60.5319 13.72ZM79.2589 7.976H75.3229L73.7389 17H70.8429L72.4269 7.976H68.4749L68.9229 5.48H79.7069L79.2589 7.976ZM85.8913 13.72C85.8913 14.456 86.4193 14.824 87.4753 14.824C88.5419 14.824 89.0753 14.4933 89.0753 13.832C89.0753 13.48 88.8939 13.192 88.5313 12.968C88.1686 12.744 87.7259 12.5573 87.2033 12.408C86.6913 12.2587 86.1739 12.088 85.6513 11.896C85.1393 11.6933 84.7019 11.384 84.3393 10.968C83.9766 10.5413 83.7953 10.0133 83.7953 9.384C83.7953 6.70667 85.5179 5.368 88.9633 5.368C90.2219 5.368 91.1713 5.608 91.8113 6.088C92.4619 6.55733 92.7873 7.21333 92.7873 8.056C92.7873 8.36533 92.7446 8.664 92.6593 8.952C92.5846 9.22933 92.5046 9.42667 92.4193 9.544L92.2913 9.736H89.4593C89.6939 9.49067 89.8113 9.18133 89.8113 8.808C89.8113 8.11467 89.3579 7.768 88.4513 7.768C87.3099 7.768 86.7393 8.13067 86.7393 8.856C86.7393 9.21867 86.9206 9.50667 87.2833 9.72C87.6459 9.93333 88.0833 10.104 88.5953 10.232C89.1179 10.3493 89.6406 10.4987 90.1633 10.68C90.6859 10.8613 91.1286 11.1653 91.4913 11.592C91.8539 12.008 92.0353 12.552 92.0353 13.224C92.0353 14.5787 91.6299 15.5867 90.8193 16.248C90.0086 16.8987 88.7606 17.224 87.0753 17.224C85.3899 17.224 84.2379 16.9253 83.6193 16.328C83.1606 15.88 82.9313 15.2613 82.9313 14.472C82.9313 14.1733 82.9633 13.848 83.0273 13.496L83.0753 13.24H85.9553L85.9233 13.432C85.9019 13.5387 85.8913 13.6347 85.8913 13.72ZM104.618 7.976H100.682L99.0983 17H96.2023L97.7863 7.976H93.8343L94.2823 5.48H105.066L104.618 7.976ZM111.023 5.48C112.239 5.48 113.103 5.74667 113.615 6.28C113.999 6.68533 114.191 7.19733 114.191 7.816C114.191 8.02933 114.17 8.25333 114.127 8.488L113.903 9.736C113.775 10.4293 113.551 10.9893 113.231 11.416C112.922 11.8427 112.575 12.1467 112.191 12.328L113.647 17H110.415L109.071 12.696H108.079L107.423 17H104.351L106.383 5.48H111.023ZM110.015 7.976H108.815L108.399 10.76H109.519C110.084 10.76 110.49 10.6267 110.735 10.36C110.98 10.0827 111.103 9.72 111.103 9.272C111.103 8.408 110.74 7.976 110.015 7.976ZM122.883 17H114.851L116.883 5.48H124.915L124.467 7.976H119.315L118.947 10.136H123.203L122.755 12.632H118.499L118.179 14.504H123.331L122.883 17ZM130.422 17L130.518 14.488H127.846L127.062 17H124.006L128.118 5.48H133.398L133.462 17H130.422ZM129.766 8.28L128.502 12.344H130.598L130.774 8.28H129.766ZM140.016 5.48L141.728 11L145.408 5.48H148.432L146.4 17H143.504L144.656 10.504L142.192 14.376H140.096L139.008 10.504L137.856 17H134.976L137.008 5.48H140.016ZM157.435 5.48L155.419 17H152.523L154.555 5.48H157.435ZM169.087 7.976H165.151L163.567 17H160.671L162.255 7.976H158.303L158.751 5.48H169.535L169.087 7.976Z" fill="white"/>
<path fill-rule="evenodd" clip-rule="evenodd" d="M16.1539 20.6952C20.621 20.6952 24.2423 17.0689 24.2423 12.5956C24.2423 8.12237 20.621 4.49606 16.1539 4.49606C11.6869 4.49606 8.06561 8.12237 8.06561 12.5956C8.06561 17.0689 11.6869 20.6952 16.1539 20.6952ZM16.1539 19.7423C20.0955 19.7423 23.2907 16.5426 23.2907 12.5956C23.2907 8.64863 20.0955 5.44895 16.1539 5.44895C12.2124 5.44895 9.01718 8.64863 9.01718 12.5956C9.01718 16.5426 12.2124 19.7423 16.1539 19.7423Z" fill="white"/>
<path fill-rule="evenodd" clip-rule="evenodd" d="M17.1179 8.75958C17.1179 10.3383 15.8386 11.6181 14.2605 11.6181C12.8765 11.6181 11.7223 10.6337 11.4594 9.3266C10.8233 10.2483 10.4507 11.3661 10.4507 12.5709C10.4507 15.7283 13.0093 18.2878 16.1654 18.2878C19.3216 18.2878 21.8801 15.7283 21.8801 12.5709C21.8801 9.49018 19.4444 6.97862 16.3943 6.85843C16.8444 7.36361 17.1179 8.02964 17.1179 8.75958ZM16.1654 14.0046C16.6915 14.0046 17.1179 13.578 17.1179 13.0518C17.1179 12.5255 16.6915 12.0989 16.1654 12.0989C15.6394 12.0989 15.213 12.5255 15.213 13.0518C15.213 13.578 15.6394 14.0046 16.1654 14.0046Z" fill="white"/>
<path fill-rule="evenodd" clip-rule="evenodd" d="M27.0051 1.24366C27.1736 1.06098 27.4583 1.04948 27.641 1.21796C29.2093 2.6644 32.2744 6.9484 32.2744 12.7419C32.2744 18.5397 29.2049 22.5239 27.6211 23.8219C27.4289 23.9794 27.1454 23.9513 26.9879 23.7591C26.8304 23.5668 26.8585 23.2833 27.0507 23.1258C28.4593 21.9714 31.3745 18.2295 31.3745 12.7419C31.3745 7.24998 28.4549 3.19292 27.0308 1.8795C26.8482 1.71102 26.8367 1.42634 27.0051 1.24366Z" fill="white"/>
<path fill-rule="evenodd" clip-rule="evenodd" d="M5.26897 23.9139C5.10048 24.0966 4.8158 24.1081 4.63312 23.9396C3.06484 22.4931 -0.000295776 18.2091 -0.00029527 12.4156C-0.000294763 6.61787 3.06923 2.63362 4.65297 1.33567C4.84518 1.17815 5.1287 1.20626 5.28623 1.39847C5.44375 1.59069 5.41563 1.8742 5.22342 2.03173C3.81482 3.18615 0.899658 6.92799 0.899657 12.4156C0.899657 17.9076 3.81921 21.9646 5.24327 23.278C5.42595 23.4465 5.43745 23.7312 5.26897 23.9139Z" fill="white"/>
<path fill-rule="evenodd" clip-rule="evenodd" d="M14.6066 24.0115C16.2341 24.1926 17.7024 24.0661 18.5408 23.8987C18.7845 23.8501 19.0215 24.0082 19.0701 24.2519C19.1188 24.4956 18.9606 24.7326 18.7169 24.7813C17.7892 24.9664 16.228 25.0975 14.5071 24.9059C12.7869 24.7144 10.871 24.1965 9.26685 23.0527C7.321 21.6653 6.08988 20.2742 5.27307 18.9211C4.45715 17.5696 4.06711 16.2761 3.78132 15.1101C3.72216 14.8687 3.86988 14.6251 4.11125 14.566C4.35262 14.5068 4.59625 14.6545 4.65541 14.8959C4.93209 16.0247 5.29576 17.2174 6.04351 18.456C6.79037 19.6932 7.93287 20.9963 9.78932 22.32C11.227 23.345 12.9784 23.8302 14.6066 24.0115Z" fill="white"/>
<path fill-rule="evenodd" clip-rule="evenodd" d="M17.6675 0.988533C16.04 0.807367 14.5717 0.933945 13.7333 1.10127C13.4896 1.14991 13.2526 0.991777 13.204 0.748068C13.1553 0.504359 13.3135 0.267365 13.5572 0.218726C14.4849 0.0335744 16.0461 -0.0974595 17.767 0.094105C19.4872 0.285589 21.4031 0.803478 23.0073 1.94728C24.9531 3.33471 26.1842 4.72584 27.001 6.07887C27.817 7.43041 28.207 8.72387 28.4928 9.88989C28.5519 10.1313 28.4042 10.3749 28.1629 10.434C27.9215 10.4932 27.6779 10.3455 27.6187 10.1041C27.342 8.97527 26.9783 7.78261 26.2306 6.54398C25.4837 5.30683 24.3412 4.00373 22.4848 2.68004C21.0471 1.65496 19.2957 1.16978 17.6675 0.988533Z" fill="white"/>
</svg>
