<svg width="433" height="433" viewBox="0 0 433 433" fill="none" xmlns="http://www.w3.org/2000/svg">
<path fill-rule="evenodd" clip-rule="evenodd" d="M362.307 65.6848C364.567 63.2339 368.386 63.0796 370.837 65.34C391.878 84.7456 433 142.22 433 219.947C433 297.73 391.819 351.184 370.571 368.597C367.992 370.711 364.189 370.333 362.075 367.755C359.962 365.176 360.339 361.372 362.918 359.259C381.816 343.771 420.926 293.57 420.926 219.947C420.926 146.266 381.757 91.8364 362.652 74.2154C360.201 71.9549 360.046 68.1357 362.307 65.6848Z" fill="white"/>
<path fill-rule="evenodd" clip-rule="evenodd" d="M70.6933 369.832C68.4328 372.283 64.6136 372.437 62.1627 370.177C41.1224 350.771 7.85417e-05 293.296 8.53368e-05 215.57C9.21369e-05 137.786 41.1813 84.333 62.429 66.9196C65.0077 64.8061 68.8114 65.1834 70.9248 67.7621C73.0382 70.3408 72.661 74.1446 70.0823 76.258C51.1842 91.7459 12.074 141.947 12.074 215.57C12.074 289.25 51.2431 343.68 70.3485 361.301C72.7994 363.562 72.9537 367.381 70.6933 369.832Z" fill="white"/>
<path fill-rule="evenodd" clip-rule="evenodd" d="M195.967 371.141C217.802 373.572 237.5 371.874 248.748 369.629C252.018 368.976 255.197 371.098 255.85 374.368C256.502 377.637 254.381 380.817 251.111 381.469C238.665 383.953 217.719 385.711 194.631 383.141C171.553 380.572 145.849 373.624 124.328 358.279C98.2218 339.665 81.7048 321.001 70.7464 302.849C59.7999 284.716 54.5671 267.363 50.7329 251.72C49.9393 248.481 51.921 245.213 55.1592 244.419C58.3975 243.625 61.6661 245.607 62.4597 248.845C66.1718 263.99 71.0509 279.991 81.0828 296.609C91.1027 313.207 106.431 330.689 131.337 348.448C150.625 362.201 174.123 368.71 195.967 371.141Z" fill="white"/>
<path fill-rule="evenodd" clip-rule="evenodd" d="M237.033 62.2623C215.198 59.8318 195.5 61.5299 184.252 63.7749C180.982 64.4274 177.803 62.3058 177.15 59.0362C176.498 55.7666 178.619 52.587 181.889 51.9345C194.335 49.4504 215.281 47.6925 238.369 50.2625C261.447 52.8315 287.151 59.7796 308.672 75.125C334.778 93.7389 351.295 112.403 362.254 130.555C373.2 148.688 378.433 166.041 382.267 181.684C383.061 184.923 381.079 188.191 377.841 188.985C374.602 189.778 371.334 187.797 370.54 184.558C366.828 169.414 361.949 153.413 351.917 136.795C341.897 120.197 326.569 102.715 301.663 84.9559C282.375 71.2032 258.877 64.6939 237.033 62.2623Z" fill="white"/>
</svg>
