<svg width="22" height="18" viewBox="0 0 22 18" fill="none" xmlns="http://www.w3.org/2000/svg">
<path fill-rule="evenodd" clip-rule="evenodd" d="M19.7679 5.20699C19.7912 8.5932 18.4564 11.8475 16.0619 14.242C13.6674 16.6365 10.4131 17.9713 7.02688 17.948C4.58911 17.9544 2.2014 17.2564 0.150879 15.938C0.509849 15.9771 0.870789 15.9955 1.23188 15.993C3.24756 15.9984 5.20627 15.3245 6.79188 14.08C4.87426 14.0472 3.18959 12.799 2.59988 10.974C2.8797 11.0187 3.16251 11.0421 3.44588 11.044C3.84342 11.0428 4.23922 10.9914 4.62388 10.891C2.53625 10.4666 1.03658 8.6303 1.03788 6.49999V6.44099C1.65823 6.78763 2.35178 6.98261 3.06188 7.01C1.08967 5.6933 0.482129 3.06953 1.67488 1.01999C3.9496 3.82015 7.30584 5.52335 10.9089 5.70599C10.8373 5.36899 10.8008 5.0255 10.7999 4.68099C10.8012 2.84293 11.9247 1.19202 13.634 0.516239C15.3433 -0.159551 17.292 0.276789 18.5499 1.61699C19.552 1.4234 20.513 1.0573 21.3899 0.534989C21.0555 1.56892 20.3554 2.44537 19.4209 2.99999C20.3101 2.89964 21.1793 2.66707 21.9999 2.30999C21.3865 3.20227 20.6272 3.98488 19.7539 4.62499C19.7679 4.81999 19.7679 5.01399 19.7679 5.20699Z" fill="white"/>
</svg>
